<svg width="3720" height="1452" xmlns="http://www.w3.org/2000/svg" xmlns:xlink="http://www.w3.org/1999/xlink" xml:space="preserve" overflow="hidden"><defs><clipPath id="clip0"><rect x="336" y="669" width="3720" height="1452"/></clipPath></defs><g clip-path="url(#clip0)" transform="translate(-336 -669)"><rect x="336" y="679" width="1700" height="740" fill="#BFBFBF"/><text font-family="Calibri,Calibri_MSFontService,sans-serif" font-weight="400" font-size="83" transform="matrix(1 0 0 1 963.932 773)">Game Engine</text><rect x="336" y="1522" width="1700" height="146" fill="#BFBFBF"/><text font-family="Calibri,Calibri_MSFontService,sans-serif" font-weight="400" font-size="83" transform="matrix(1 0 0 1 786.121 1622)">Graphics API &amp; Runtime</text><rect x="336" y="1735" width="1700" height="146" fill="#BFBFBF"/><text font-family="Calibri,Calibri_MSFontService,sans-serif" font-weight="400" font-size="83" transform="matrix(1 0 0 1 1068.17 1836)">Drivers</text><rect x="337" y="1948" width="1700" height="147" fill="#BFBFBF"/><text font-family="Calibri,Calibri_MSFontService,sans-serif" font-weight="400" font-size="83" transform="matrix(1 0 0 1 1022.78 2049)">Hardware</text><rect x="360" y="840" width="1652" height="109" fill="#8FAADC"/><text font-family="Calibri,Calibri_MSFontService,sans-serif" font-weight="400" font-size="64" transform="matrix(1 0 0 1 828.459 916)">Effects, Passes, Frame Logic</text><rect x="360" y="1309" width="1652" height="110" fill="#8FAADC"/><text font-family="Calibri,Calibri_MSFontService,sans-serif" font-weight="400" font-size="64" transform="matrix(1 0 0 1 1140.39 1385)">RHI</text><rect x="360" y="1023" width="251" height="214" fill="#FFD966"/><text font-family="Calibri,Calibri_MSFontService,sans-serif" font-weight="400" font-size="41" transform="matrix(1 0 0 1 406.701 1095)">Transient <tspan font-size="41" x="-12.0313" y="49">Memory &amp; </tspan><tspan font-size="41" x="-6.57709" y="99">Resources</tspan></text><rect x="626" y="1022" width="251" height="215" fill="#FFD966"/><text font-family="Calibri,Calibri_MSFontService,sans-serif" font-weight="400" font-size="41" transform="matrix(1 0 0 1 694.065 1119)">Barrier <tspan font-size="41" x="-33.8021" y="49">Scheduling</tspan></text><rect x="893" y="1022" width="251" height="215" fill="#FFD966"/><text font-family="Calibri,Calibri_MSFontService,sans-serif" font-weight="400" font-size="41" transform="matrix(1 0 0 1 931.173 1119)">GPU Work <tspan font-size="41" x="-4.30835" y="49">Scheduling</tspan></text><rect x="1170" y="1022" width="251" height="215" fill="#8FAADC"/><text font-family="Calibri,Calibri_MSFontService,sans-serif" font-weight="400" font-size="41" transform="matrix(1 0 0 1 1217.99 1119)">Resource <tspan font-size="41" x="14.025" y="49">Binding</tspan></text><rect x="1707" y="1021" width="251" height="215" fill="#8FAADC"/><text font-family="Calibri,Calibri_MSFontService,sans-serif" font-weight="400" font-size="41" transform="matrix(1 0 0 1 1747.22 1143)">Streaming<tspan font-size="55" x="217.703" y="26">…</tspan></text><path d="M1180.77 1493.98 1180.77 1448.15 1192.23 1448.15 1192.23 1493.98ZM1203.69 1488.25 1186.5 1522.62 1169.31 1488.25ZM1169.31 1453.88 1186.5 1419.5 1203.69 1453.87Z" fill="#FF0000"/><path d="M345 1025.5C345 1014.18 354.179 1005 365.502 1005L1137.5 1005C1148.82 1005 1158 1014.18 1158 1025.5L1158 1230.5C1158 1241.82 1148.82 1251 1137.5 1251L365.502 1251C354.179 1251 345 1241.82 345 1230.5Z" stroke="#FF0000" stroke-width="10.3125" stroke-miterlimit="8" fill="none" fill-rule="evenodd"/><path d="M5.72931 28.6458 5.72953 72.9933-5.72881 72.9934-5.72902 28.6459ZM-17.1873 34.3751 0 0 17.1877 34.3749Z" fill="#FF0000" transform="matrix(1 0 0 -1 508.5 1022.49)"/><path d="M5.72931 28.6458 5.72953 72.9933-5.72881 72.9934-5.72902 28.6459ZM-17.1873 34.3751 0 0 17.1877 34.3749Z" fill="#FF0000" transform="matrix(1 0 0 -1 755.5 1021.49)"/><path d="M5.72931 28.6458 5.72953 72.9933-5.72881 72.9934-5.72902 28.6459ZM-17.1873 34.3751 0 0 17.1877 34.3749Z" fill="#FF0000" transform="matrix(1 0 0 -1 1023.5 1021.49)"/><path d="M5.72931 28.6458 5.72953 72.9933-5.72881 72.9934-5.72902 28.6459ZM-17.1873 34.3751 0 0 17.1877 34.3749Z" fill="#FF0000" transform="matrix(1 0 0 -1 507.5 1309.49)"/><path d="M5.72931 28.6458 5.72953 72.9933-5.72881 72.9934-5.72902 28.6459ZM-17.1873 34.3751 0 0 17.1877 34.3749Z" fill="#FF0000" transform="matrix(1 0 0 -1 752.5 1309.49)"/><path d="M5.72931 28.6458 5.72953 72.9933-5.72881 72.9934-5.72902 28.6459ZM-17.1873 34.3751 0 0 17.1877 34.3749Z" fill="#FF0000" transform="matrix(1 0 0 -1 1023.5 1311.49)"/><rect x="1439" y="1021" width="251" height="215" fill="#8FAADC"/><text font-family="Calibri,Calibri_MSFontService,sans-serif" font-weight="400" font-size="41" transform="matrix(1 0 0 1 1530.39 1118)">PSO <tspan font-size="41" x="-49.5689" y="49">Managing</tspan></text><rect x="2355" y="678" width="1700" height="739" fill="#BFBFBF"/><text font-family="Calibri,Calibri_MSFontService,sans-serif" font-weight="400" font-size="83" transform="matrix(1 0 0 1 2982.89 771)">Game Engine</text><rect x="2355" y="1520" width="1700" height="146" fill="#BFBFBF"/><text font-family="Calibri,Calibri_MSFontService,sans-serif" font-weight="400" font-size="83" transform="matrix(1 0 0 1 2805.08 1621)">Graphics API &amp; Runtime</text><rect x="2355" y="1733" width="1700" height="147" fill="#BFBFBF"/><text font-family="Calibri,Calibri_MSFontService,sans-serif" font-weight="400" font-size="83" transform="matrix(1 0 0 1 3087.13 1834)">Drivers</text><rect x="2356" y="1946" width="1700" height="147" fill="#BFBFBF"/><text font-family="Calibri,Calibri_MSFontService,sans-serif" font-weight="400" font-size="83" transform="matrix(1 0 0 1 3041.74 2047)">Hardware</text><rect x="2379" y="838" width="1652" height="109" fill="#8FAADC"/><text font-family="Calibri,Calibri_MSFontService,sans-serif" font-weight="400" font-size="64" transform="matrix(1 0 0 1 2847.42 914)">Effects, Passes, Frame Logic</text><rect x="3189" y="1020" width="251" height="215" fill="#8FAADC"/><text font-family="Calibri,Calibri_MSFontService,sans-serif" font-weight="400" font-size="41" transform="matrix(1 0 0 1 3236.95 1117)">Resource <tspan font-size="41" x="14.0251" y="49">Binding</tspan></text><rect x="3726" y="1020" width="251" height="214" fill="#8FAADC"/><text font-family="Calibri,Calibri_MSFontService,sans-serif" font-weight="400" font-size="41" transform="matrix(1 0 0 1 3766.18 1141)">Streaming<tspan font-size="55" x="217.703" y="26">…</tspan></text><path d="M3199.77 1491.98 3199.77 1446.15 3211.23 1446.15 3211.23 1491.98ZM3222.69 1486.25 3205.5 1520.62 3188.31 1486.25ZM3188.31 1451.88 3205.5 1417.5 3222.69 1451.87Z" fill="#FF0000"/><rect x="3458" y="1020" width="251" height="214" fill="#8FAADC"/><text font-family="Calibri,Calibri_MSFontService,sans-serif" font-weight="400" font-size="41" transform="matrix(1 0 0 1 3549.35 1116)">PSO <tspan font-size="41" x="-49.5689" y="49">Managing</tspan></text><rect x="2379" y="1308" width="1652" height="109" fill="#8FAADC"/><text font-family="Calibri,Calibri_MSFontService,sans-serif" font-weight="400" font-size="64" transform="matrix(1 0 0 1 3159.35 1384)">RHI</text><rect x="2576" y="1020" width="479" height="214" fill="#FF7C80"/><text font-family="Calibri,Calibri_MSFontService,sans-serif" font-weight="400" font-size="64" transform="matrix(1 0 0 1 2708.42 1149)">RPS SDK</text><path d="M5.72919 28.6458 5.7292 40.1041-5.72914 40.1041-5.72915 28.6458ZM5.7292 51.5625 5.72921 63.0208-5.72912 63.0208-5.72913 51.5625ZM5.72922 74.4791 5.72923 85.9375-5.7291 85.9375-5.72911 74.4791ZM5.72924 97.3958 5.72924 108.854-5.72909 108.854-5.7291 97.3958ZM5.72925 120.312 5.72926 131.771-5.72907 131.771-5.72908 120.312ZM5.72927 143.229 5.72928 154.687-5.72906 154.687-5.72906 143.229ZM5.72929 166.146 5.72929 177.604-5.72904 177.604-5.72905 166.146ZM5.7293 189.062 5.72931 200.521-5.72902 200.521-5.72903 189.062ZM5.72932 211.979 5.72933 223.437-5.72901 223.437-5.72901 211.979ZM5.72934 234.896 5.72934 246.354-5.72899 246.354-5.729 234.896ZM5.72935 257.812 5.72936 269.271-5.72897 269.271-5.72898 257.812ZM5.72937 280.729 5.72938 292.187-5.72896 292.187-5.72896 280.729ZM5.72939 303.646 5.72939 315.104-5.72894 315.104-5.72895 303.646ZM5.7294 326.562 5.72941 338.021-5.72892 338.021-5.72893 326.562ZM5.72942 349.479 5.72943 360.937-5.72891 360.937-5.72892 349.479ZM5.72943 372.396 5.72944 383.854-5.72889 383.854-5.7289 372.396ZM5.72945 395.312 5.72946 406.771-5.72887 406.771-5.72888 395.312ZM5.72947 418.229 5.72948 429.687-5.72886 429.687-5.72887 418.229ZM5.72948 441.146 5.72949 452.604-5.72884 452.604-5.72885 441.146ZM5.7295 464.062 5.72951 473.228-5.72883 473.228-5.72883 464.062ZM-17.1875 34.375 0 0 17.1875 34.375ZM17.1878 467.499 0.000360892 501.874-17.1872 467.499Z" fill="#FF0000" transform="matrix(1 0 0 -1 2669.5 1731.37)"/><path d="M5.7292 28.6458 5.72949 264.115-5.72884 264.115-5.72913 28.6458ZM-17.1875 34.375 0 0 17.1875 34.375ZM17.1878 258.386 0.000360892 292.761-17.1872 258.386Z" fill="#FF0000" transform="matrix(1 0 0 -1 2744.5 1522.26)"/><path d="M5.72931 28.6458 5.72953 72.9933-5.72881 72.9934-5.72902 28.6459ZM-17.1873 34.3751 0 0 17.1877 34.3749Z" fill="#FF0000" transform="matrix(1 0 0 -1 2815.5 1020.49)"/><path d="M5.72929 28.6458 5.7294 53.8541-5.72893 53.8542-5.72904 28.6459ZM-17.1873 34.3751 0 0 17.1877 34.3749ZM17.1877 48.1249 0.000360892 82.5-17.1873 48.1251Z" fill="#FF0000" transform="matrix(1 0 0 -1 2819.5 1312)"/><path d="M3084.16 1121.85 3161.01 1122.07 3160.98 1133.53 3084.13 1133.31ZM3089.83 1144.78 3055.5 1127.5 3089.92 1110.41ZM3155.32 1110.6 3189.64 1127.88 3155.22 1144.97Z" fill="#FF0000"/><path d="M2128 1321.75 2204.5 1321.75 2204.5 1259 2281 1384.5 2204.5 1510 2204.5 1447.25 2128 1447.25Z" fill="#FFC000" fill-rule="evenodd"/></g></svg>