<svg width="5165" height="1804" xmlns="http://www.w3.org/2000/svg" xmlns:xlink="http://www.w3.org/1999/xlink" xml:space="preserve" overflow="hidden"><defs><filter id="fx0" x="-10%" y="-10%" width="120%" height="120%" filterUnits="userSpaceOnUse" primitiveUnits="userSpaceOnUse"><feComponentTransfer color-interpolation-filters="sRGB"><feFuncR type="discrete" tableValues="0 0"/><feFuncG type="discrete" tableValues="0 0"/><feFuncB type="discrete" tableValues="0 0"/><feFuncA type="linear" slope="0.380392" intercept="0"/></feComponentTransfer><feGaussianBlur stdDeviation="4.58333 4.58333"/></filter><filter id="fx1" x="-10%" y="-10%" width="120%" height="120%" filterUnits="userSpaceOnUse" primitiveUnits="userSpaceOnUse"><feComponentTransfer color-interpolation-filters="sRGB"><feFuncR type="discrete" tableValues="0 0"/><feFuncG type="discrete" tableValues="0 0"/><feFuncB type="discrete" tableValues="0 0"/><feFuncA type="linear" slope="0.380392" intercept="0"/></feComponentTransfer><feGaussianBlur stdDeviation="4.58333 4.58333"/></filter><filter id="fx2" x="-10%" y="-10%" width="120%" height="120%" filterUnits="userSpaceOnUse" primitiveUnits="userSpaceOnUse"><feComponentTransfer color-interpolation-filters="sRGB"><feFuncR type="discrete" tableValues="0 0"/><feFuncG type="discrete" tableValues="0 0"/><feFuncB type="discrete" tableValues="0 0"/><feFuncA type="linear" slope="0.380392" intercept="0"/></feComponentTransfer><feGaussianBlur stdDeviation="4.58333 4.58333"/></filter><filter id="fx3" x="-10%" y="-10%" width="120%" height="120%" filterUnits="userSpaceOnUse" primitiveUnits="userSpaceOnUse"><feComponentTransfer color-interpolation-filters="sRGB"><feFuncR type="discrete" tableValues="0 0"/><feFuncG type="discrete" tableValues="0 0"/><feFuncB type="discrete" tableValues="0 0"/><feFuncA type="linear" slope="0.380392" intercept="0"/></feComponentTransfer><feGaussianBlur stdDeviation="4.58333 4.58333"/></filter><filter id="fx4" x="-10%" y="-10%" width="120%" height="120%" filterUnits="userSpaceOnUse" primitiveUnits="userSpaceOnUse"><feComponentTransfer color-interpolation-filters="sRGB"><feFuncR type="discrete" tableValues="0 0"/><feFuncG type="discrete" tableValues="0 0"/><feFuncB type="discrete" tableValues="0 0"/><feFuncA type="linear" slope="0.380392" intercept="0"/></feComponentTransfer><feGaussianBlur stdDeviation="4.58333 4.58333"/></filter><filter id="fx5" x="-10%" y="-10%" width="120%" height="120%" filterUnits="userSpaceOnUse" primitiveUnits="userSpaceOnUse"><feComponentTransfer color-interpolation-filters="sRGB"><feFuncR type="discrete" tableValues="0 0"/><feFuncG type="discrete" tableValues="0 0"/><feFuncB type="discrete" tableValues="0 0"/><feFuncA type="linear" slope="0.380392" intercept="0"/></feComponentTransfer><feGaussianBlur stdDeviation="4.58333 4.58333"/></filter><filter id="fx6" x="-10%" y="-10%" width="120%" height="120%" filterUnits="userSpaceOnUse" primitiveUnits="userSpaceOnUse"><feComponentTransfer color-interpolation-filters="sRGB"><feFuncR type="discrete" tableValues="0 0"/><feFuncG type="discrete" tableValues="0 0"/><feFuncB type="discrete" tableValues="0 0"/><feFuncA type="linear" slope="0.380392" intercept="0"/></feComponentTransfer><feGaussianBlur stdDeviation="4.58333 4.58333"/></filter><filter id="fx7" x="-10%" y="-10%" width="120%" height="120%" filterUnits="userSpaceOnUse" primitiveUnits="userSpaceOnUse"><feComponentTransfer color-interpolation-filters="sRGB"><feFuncR type="discrete" tableValues="0 0"/><feFuncG type="discrete" tableValues="0 0"/><feFuncB type="discrete" tableValues="0 0"/><feFuncA type="linear" slope="0.380392" intercept="0"/></feComponentTransfer><feGaussianBlur stdDeviation="4.58333 4.58333"/></filter><filter id="fx8" x="-10%" y="-10%" width="120%" height="120%" filterUnits="userSpaceOnUse" primitiveUnits="userSpaceOnUse"><feComponentTransfer color-interpolation-filters="sRGB"><feFuncR type="discrete" tableValues="0 0"/><feFuncG type="discrete" tableValues="0 0"/><feFuncB type="discrete" tableValues="0 0"/><feFuncA type="linear" slope="0.380392" intercept="0"/></feComponentTransfer><feGaussianBlur stdDeviation="4.58333 4.58333"/></filter><filter id="fx9" x="-10%" y="-10%" width="120%" height="120%" filterUnits="userSpaceOnUse" primitiveUnits="userSpaceOnUse"><feComponentTransfer color-interpolation-filters="sRGB"><feFuncR type="discrete" tableValues="0 0"/><feFuncG type="discrete" tableValues="0 0"/><feFuncB type="discrete" tableValues="0 0"/><feFuncA type="linear" slope="0.380392" intercept="0"/></feComponentTransfer><feGaussianBlur stdDeviation="4.58333 4.58333"/></filter><filter id="fx10" x="-10%" y="-10%" width="120%" height="120%" filterUnits="userSpaceOnUse" primitiveUnits="userSpaceOnUse"><feComponentTransfer color-interpolation-filters="sRGB"><feFuncR type="discrete" tableValues="0 0"/><feFuncG type="discrete" tableValues="0 0"/><feFuncB type="discrete" tableValues="0 0"/><feFuncA type="linear" slope="0.380392" intercept="0"/></feComponentTransfer><feGaussianBlur stdDeviation="4.58333 4.58333"/></filter><filter id="fx11" x="-10%" y="-10%" width="120%" height="120%" filterUnits="userSpaceOnUse" primitiveUnits="userSpaceOnUse"><feComponentTransfer color-interpolation-filters="sRGB"><feFuncR type="discrete" tableValues="0 0"/><feFuncG type="discrete" tableValues="0 0"/><feFuncB type="discrete" tableValues="0 0"/><feFuncA type="linear" slope="0.380392" intercept="0"/></feComponentTransfer><feGaussianBlur stdDeviation="4.58333 4.58333"/></filter><filter id="fx12" x="-10%" y="-10%" width="120%" height="120%" filterUnits="userSpaceOnUse" primitiveUnits="userSpaceOnUse"><feComponentTransfer color-interpolation-filters="sRGB"><feFuncR type="discrete" tableValues="0 0"/><feFuncG type="discrete" tableValues="0 0"/><feFuncB type="discrete" tableValues="0 0"/><feFuncA type="linear" slope="0.380392" intercept="0"/></feComponentTransfer><feGaussianBlur stdDeviation="4.58333 4.58333"/></filter><filter id="fx13" x="-10%" y="-10%" width="120%" height="120%" filterUnits="userSpaceOnUse" primitiveUnits="userSpaceOnUse"><feComponentTransfer color-interpolation-filters="sRGB"><feFuncR type="discrete" tableValues="0 0"/><feFuncG type="discrete" tableValues="0 0"/><feFuncB type="discrete" tableValues="0 0"/><feFuncA type="linear" slope="0.380392" intercept="0"/></feComponentTransfer><feGaussianBlur stdDeviation="4.58333 4.58333"/></filter><filter id="fx14" x="-10%" y="-10%" width="120%" height="120%" filterUnits="userSpaceOnUse" primitiveUnits="userSpaceOnUse"><feComponentTransfer color-interpolation-filters="sRGB"><feFuncR type="discrete" tableValues="0 0"/><feFuncG type="discrete" tableValues="0 0"/><feFuncB type="discrete" tableValues="0 0"/><feFuncA type="linear" slope="0.380392" intercept="0"/></feComponentTransfer><feGaussianBlur stdDeviation="4.58333 4.58333"/></filter><filter id="fx15" x="-10%" y="-10%" width="120%" height="120%" filterUnits="userSpaceOnUse" primitiveUnits="userSpaceOnUse"><feComponentTransfer color-interpolation-filters="sRGB"><feFuncR type="discrete" tableValues="0 0"/><feFuncG type="discrete" tableValues="0 0"/><feFuncB type="discrete" tableValues="0 0"/><feFuncA type="linear" slope="0.380392" intercept="0"/></feComponentTransfer><feGaussianBlur stdDeviation="4.58333 4.58333"/></filter><filter id="fx16" x="-10%" y="-10%" width="120%" height="120%" filterUnits="userSpaceOnUse" primitiveUnits="userSpaceOnUse"><feComponentTransfer color-interpolation-filters="sRGB"><feFuncR type="discrete" tableValues="0 0"/><feFuncG type="discrete" tableValues="0 0"/><feFuncB type="discrete" tableValues="0 0"/><feFuncA type="linear" slope="0.380392" intercept="0"/></feComponentTransfer><feGaussianBlur stdDeviation="4.58333 4.58333"/></filter><filter id="fx17" x="-10%" y="-10%" width="120%" height="120%" filterUnits="userSpaceOnUse" primitiveUnits="userSpaceOnUse"><feComponentTransfer color-interpolation-filters="sRGB"><feFuncR type="discrete" tableValues="0 0"/><feFuncG type="discrete" tableValues="0 0"/><feFuncB type="discrete" tableValues="0 0"/><feFuncA type="linear" slope="0.380392" intercept="0"/></feComponentTransfer><feGaussianBlur stdDeviation="4.58333 4.58333"/></filter><filter id="fx18" x="-10%" y="-10%" width="120%" height="120%" filterUnits="userSpaceOnUse" primitiveUnits="userSpaceOnUse"><feComponentTransfer color-interpolation-filters="sRGB"><feFuncR type="discrete" tableValues="0 0"/><feFuncG type="discrete" tableValues="0 0"/><feFuncB type="discrete" tableValues="0 0"/><feFuncA type="linear" slope="0.380392" intercept="0"/></feComponentTransfer><feGaussianBlur stdDeviation="4.58333 4.58333"/></filter><clipPath id="clip19"><rect x="351" y="856" width="5165" height="1804"/></clipPath><clipPath id="clip20"><rect x="39" y="18" width="467" height="77"/></clipPath><clipPath id="clip21"><rect x="0" y="0" width="545" height="113"/></clipPath><clipPath id="clip22"><rect x="18" y="39" width="77" height="902"/></clipPath><clipPath id="clip23"><rect x="0" y="0" width="114" height="945"/></clipPath><clipPath id="clip24"><rect x="18" y="39" width="77" height="305"/></clipPath><clipPath id="clip25"><rect x="0" y="0" width="114" height="349"/></clipPath><clipPath id="clip26"><rect x="-2" y="18" width="165" height="77"/></clipPath><clipPath id="clip27"><rect x="0" y="0" width="204" height="113"/></clipPath><clipPath id="clip28"><rect x="18" y="7" width="77" height="304"/></clipPath><clipPath id="clip29"><rect x="0" y="0" width="114" height="350"/></clipPath><clipPath id="clip30"><rect x="18" y="7" width="77" height="304"/></clipPath><clipPath id="clip31"><rect x="0" y="0" width="114" height="350"/></clipPath><clipPath id="clip32"><rect x="-2" y="18" width="127" height="77"/></clipPath><clipPath id="clip33"><rect x="0" y="0" width="165" height="113"/></clipPath><clipPath id="clip34"><rect x="-2" y="18" width="133" height="77"/></clipPath><clipPath id="clip35"><rect x="0" y="0" width="169" height="113"/></clipPath><clipPath id="clip36"><rect x="577" y="1391" width="198" height="199"/></clipPath><clipPath id="clip37"><rect x="577" y="1391" width="198" height="199"/></clipPath><clipPath id="clip38"><rect x="577" y="1391" width="198" height="199"/></clipPath><clipPath id="clip39"><rect x="1062" y="1389" width="200" height="201"/></clipPath><clipPath id="clip40"><rect x="1062" y="1389" width="200" height="201"/></clipPath><clipPath id="clip41"><rect x="1062" y="1389" width="200" height="201"/></clipPath><clipPath id="clip42"><rect x="1511" y="1431" width="141" height="140"/></clipPath><clipPath id="clip43"><rect x="1511" y="1431" width="141" height="140"/></clipPath><clipPath id="clip44"><rect x="1511" y="1431" width="141" height="140"/></clipPath><clipPath id="clip45"><rect x="671" y="1981" width="205" height="205"/></clipPath><clipPath id="clip46"><rect x="671" y="1981" width="205" height="205"/></clipPath><clipPath id="clip47"><rect x="671" y="1981" width="205" height="205"/></clipPath><clipPath id="clip48"><rect x="-2" y="18" width="118" height="77"/></clipPath><clipPath id="clip49"><rect x="0" y="0" width="154" height="113"/></clipPath><clipPath id="clip50"><rect x="-2" y="18" width="118" height="77"/></clipPath><clipPath id="clip51"><rect x="0" y="0" width="154" height="113"/></clipPath><clipPath id="clip52"><rect x="3105" y="1382" width="200" height="201"/></clipPath><clipPath id="clip53"><rect x="3105" y="1382" width="200" height="201"/></clipPath><clipPath id="clip54"><rect x="3105" y="1382" width="200" height="201"/></clipPath><clipPath id="clip55"><rect x="39" y="18" width="461" height="77"/></clipPath><clipPath id="clip56"><rect x="0" y="0" width="539" height="113"/></clipPath><clipPath id="clip57"><rect x="39" y="18" width="461" height="77"/></clipPath><clipPath id="clip58"><rect x="0" y="0" width="539" height="113"/></clipPath><clipPath id="clip59"><rect x="39" y="18" width="461" height="77"/></clipPath><clipPath id="clip60"><rect x="0" y="0" width="539" height="113"/></clipPath><clipPath id="clip61"><rect x="4" y="18" width="159" height="77"/></clipPath><clipPath id="clip62"><rect x="0" y="0" width="204" height="113"/></clipPath><clipPath id="clip63"><rect x="4" y="18" width="156" height="77"/></clipPath><clipPath id="clip64"><rect x="0" y="0" width="201" height="113"/></clipPath><clipPath id="clip65"><rect x="4" y="18" width="159" height="77"/></clipPath><clipPath id="clip66"><rect x="0" y="0" width="204" height="113"/></clipPath><clipPath id="clip67"><rect x="18" y="39" width="77" height="571"/></clipPath><clipPath id="clip68"><rect x="0" y="0" width="114" height="614"/></clipPath><clipPath id="clip69"><rect x="18" y="39" width="77" height="305"/></clipPath><clipPath id="clip70"><rect x="0" y="0" width="114" height="349"/></clipPath><clipPath id="clip71"><rect x="18" y="7" width="77" height="159"/></clipPath><clipPath id="clip72"><rect x="0" y="0" width="114" height="205"/></clipPath></defs><g clip-path="url(#clip19)" transform="translate(-351 -856)"><rect x="3878" y="860" width="1638" height="1512" fill="#D0CECE"/><text fill="#231E1F" font-family="Arial,Arial_MSFontService,sans-serif" font-weight="400" font-size="110" transform="matrix(1 0 0 1 4238.44 996)">API / RHI Backend</text><rect x="2114" y="860" width="1638" height="1512" fill="#D0CECE"/><text fill="#231E1F" font-family="Arial,Arial_MSFontService,sans-serif" font-weight="400" font-size="110" transform="matrix(1 0 0 1 2516.82 996)">Runtime Pipeline</text><rect x="4699" y="1752" width="663" height="473" fill="#27D8FF"/><text fill="#231E1F" font-family="Arial,Arial_MSFontService,sans-serif" font-weight="400" font-size="73" transform="matrix(1 0 0 1 4831.02 2015)">Custom RHI</text><rect x="4699" y="1153" width="663" height="203" fill="#F7A37A"/><text fill="#231E1F" font-family="Arial,Arial_MSFontService,sans-serif" font-weight="400" font-size="73" transform="matrix(1 0 0 1 4939.3 1253)">DX12</text><rect x="4697" y="1452" width="663" height="203" fill="#F7A37A"/><text fill="#231E1F" font-family="Arial,Arial_MSFontService,sans-serif" font-weight="400" font-size="73" transform="matrix(1 0 0 1 4918.1 1553)">Vulkan</text><rect x="2261" y="1153" width="419" height="472" fill="#F7A37A"/><text fill="#231E1F" font-family="Arial,Arial_MSFontService,sans-serif" font-weight="400" font-size="73" transform="matrix(1 0 0 1 2376.33 1372)">RPSL <tspan font-size="73" x="-42.3272" y="88">Runtime</tspan></text><rect x="2813" y="1153" width="784" height="1072" fill="#F7A37A"/><text fill="#231E1F" font-family="Arial,Arial_MSFontService,sans-serif" font-weight="400" font-size="64" transform="matrix(1 0 0 1 3002.05 1244)">Render Graph<tspan font-size="64" x="-53.5794" y="77">Runtime Compiler</tspan></text><g clip-path="url(#clip20)" filter="url(#fx0)" transform="translate(3540 1639)"><g clip-path="url(#clip21)"><path d="M35.0001-6.99997 396.083-6.99967 396.083 7.00033 35 7.00003ZM42 21 0 0 42-21ZM389.083-20.9997 431.083 0.000360892 389.083 21.0003Z" fill="#7030A0" transform="matrix(-1 0 0 1 488.083 56.218)"/></g></g><path d="M34.375-6.87497 396.708-6.87467 396.708 6.87533 34.375 6.87503ZM41.25 20.625 0 0 41.25-20.625ZM389.833-20.6247 431.083 0.000360892 389.833 20.6253Z" fill="#7030A0" transform="matrix(-1 0 0 1 4028.08 1688)"/><rect x="4028" y="1153" width="546" height="1071" fill="#F7A37A"/><text fill="#231E1F" font-family="Arial,Arial_MSFontService,sans-serif" font-weight="400" font-size="73" transform="matrix(1 0 0 1 4152.02 1671)">Common<tspan font-size="73" x="-60.9812" y="88">Backend API</tspan></text><rect x="2911" y="1813" width="588" height="148" fill="#27D8FF"/><text fill="#231E1F" font-family="Arial,Arial_MSFontService,sans-serif" font-weight="400" font-size="64" transform="matrix(1 0 0 1 2980.27 1904)">Custom Passes</text><g clip-path="url(#clip22)" filter="url(#fx1)" transform="translate(2368 1580)"><g clip-path="url(#clip23)"><path d="M64.0003 91.218 64.0006 922.8 50.0006 922.8 50.0003 91.218ZM36.0003 98.2179 57.0002 56.2179 78.0003 98.2179Z" fill="#C1470C"/></g></g><path d="M2431.88 1663.38 2431.88 2495.58 2418.13 2495.58 2418.13 1663.38ZM2404.38 1670.25 2425 1629 2445.63 1670.25Z" fill="#C1470C"/><rect x="2261" y="1752" width="419" height="472" fill="#F7A37A"/><text fill="#231E1F" font-family="Arial,Arial_MSFontService,sans-serif" font-weight="400" font-size="64" transform="matrix(1 0 0 1 2365.51 1934)">Render <tspan font-size="64" x="16.0417" y="77">Graph </tspan><tspan font-size="64" x="5.15625" y="154">Builder</tspan></text><g clip-path="url(#clip24)" filter="url(#fx2)" transform="translate(2413 2175)"><g clip-path="url(#clip25)"><path d="M64.073 91.2033 64.5674 327.594 50.5675 327.624 50.073 91.2326ZM36.0877 98.2619 56.9998 56.218 78.0876 98.174Z" fill="#C1470C"/></g></g><path d="M2476.95 2258.36 2477.44 2495.38 2463.69 2495.41 2463.2 2258.39ZM2449.46 2265.29 2470 2224 2490.71 2265.21Z" fill="#C1470C"/><rect x="2261" y="2491" width="419" height="161" fill="#27D8FF"/><text fill="#231E1F" font-family="Arial,Arial_MSFontService,sans-serif" font-weight="400" font-size="73" transform="matrix(1 0 0 1 2320.69 2598)">Variables</text><g clip-path="url(#clip26)" filter="url(#fx3)" transform="translate(2665 1939)"><g clip-path="url(#clip27)"><path d="M14.9998 49.2178 112.883 49.218 112.883 63.218 14.9997 63.2178ZM105.883 35.218 147.883 56.2181 105.883 77.218Z" fill="#C1470C"/></g></g><path d="M2680 1981.12 2778.51 1981.13 2778.51 1994.88 2680 1994.87ZM2771.63 1967.38 2812.88 1988 2771.63 2008.63Z" fill="#C1470C"/><rect x="4031" y="2489" width="1331" height="161" fill="#27D8FF"/><text fill="#231E1F" font-family="Arial,Arial_MSFontService,sans-serif" font-weight="400" font-size="73" transform="matrix(1 0 0 1 4182 2597)">Command Recording Callbacks</text><g clip-path="url(#clip28)" filter="url(#fx4)" transform="translate(4244 2209)"><g clip-path="url(#clip29)"><path d="M7.00005 35 7.00036 271.39-6.99964 271.39-6.99995 35ZM-20.9999 42 0 0 21.0001 42Z" fill="#7030A0" transform="matrix(1 0 0 -1 57 293.608)"/></g></g><path d="M6.87505 34.375 6.87536 271.39-6.87464 271.39-6.87495 34.375ZM-20.6249 41.25 0 0 20.6251 41.25Z" fill="#7030A0" transform="matrix(1 0 0 -1 4301 2495.39)"/><g clip-path="url(#clip30)" filter="url(#fx5)" transform="translate(4971 2209)"><g clip-path="url(#clip31)"><path d="M7.00005 35 7.00036 271.39-6.99964 271.39-6.99995 35ZM-20.9999 42 0 0 21.0001 42Z" fill="#7030A0" transform="matrix(1 0 0 -1 57 293.608)"/></g></g><path d="M6.87505 34.375 6.87536 271.39-6.87464 271.39-6.87495 34.375ZM-20.6249 41.25 0 0 20.6251 41.25Z" fill="#7030A0" transform="matrix(1 0 0 -1 5028 2495.39)"/><rect x="351" y="860" width="1638" height="1512" fill="#D0CECE"/><text fill="#231E1F" font-family="Arial,Arial_MSFontService,sans-serif" font-weight="400" font-size="110" transform="matrix(1 0 0 1 949.612 996)">Frontend</text><rect x="507" y="1154" width="338" height="471" fill="#27D8FF"/><text fill="#231E1F" font-family="Arial,Arial_MSFontService,sans-serif" font-weight="400" font-size="73" transform="matrix(1 0 0 1 580.257 1254)">RPSL</text><rect x="938" y="1153" width="461" height="472" fill="#F7A37A"/><text fill="#231E1F" font-family="Arial,Arial_MSFontService,sans-serif" font-weight="400" font-size="73" transform="matrix(1 0 0 1 981.257 1253)">Offline / JIT<tspan font-size="73" x="40.8834" y="88">Compiler</tspan></text><rect x="1133" y="1752" width="702" height="202" fill="#F7A37A"/><text fill="#231E1F" font-family="Arial,Arial_MSFontService,sans-serif" font-weight="400" font-size="73" transform="matrix(1 0 0 1 1347.63 1880)">C++ API</text><rect x="1497" y="1153" width="338" height="472" fill="#F4777C"/><text fill="#231E1F" font-family="Arial,Arial_MSFontService,sans-serif" font-weight="400" font-size="73" transform="matrix(1 0 0 1 1590.86 1253)">RPS<tspan font-size="73" x="-44.9625" y="88">Module</tspan></text><rect x="504" y="1752" width="547" height="473" fill="#27D8FF"/><text fill="#231E1F" font-family="Arial,Arial_MSFontService,sans-serif" font-weight="400" font-size="73" transform="matrix(1 0 0 1 651.059 1852)">Custom <tspan font-size="73" x="-20.3271" y="88">Frontend</tspan></text><g clip-path="url(#clip32)" filter="url(#fx6)" transform="translate(830 1340)"><g clip-path="url(#clip33)"><path d="M0.0287824-6.99994 58.065-6.76131 58.0074 7.23857-0.0287824 6.99994ZM51.1226-20.79 93.0359 0.382546 50.9499 21.2097Z" fill="#007B96" transform="matrix(1 0 0 -1 14.9999 56.6005)"/></g></g><path d="M0.0282685-6.87494 58.6894-6.63374 58.6329 7.11615-0.0282685 6.87494ZM51.871-20.4119 93.0359 0.382546 51.7014 20.8378Z" fill="#007B96" transform="matrix(1 0 0 -1 845 1389.38)"/><g clip-path="url(#clip34)" filter="url(#fx7)" transform="translate(1384 1340)"><g clip-path="url(#clip35)"><path d="M15.0001 49.2179 77.5858 49.2181 77.5858 63.2181 15.0001 63.2179ZM70.5859 35.2181 112.586 56.2183 70.5857 77.2181Z" fill="#007B96"/></g></g><path d="M1399 1382.13 1462.21 1382.13 1462.21 1395.88 1399 1395.88ZM1455.34 1368.38 1496.59 1389 1455.34 1409.63Z" fill="#007B96"/><g clip-path="url(#clip36)"><g clip-path="url(#clip37)"><g clip-path="url(#clip38)"><path d="M57.4583 86.1875 139.542 86.1875 139.542 90.2917 57.4583 90.2917Z" stroke="#231E1F" stroke-width="2.05208" transform="matrix(1 0 0 1 577 1392)"/><path d="M57.4583 69.7708 96.4479 69.7708 96.4479 73.875 57.4583 73.875Z" stroke="#231E1F" stroke-width="2.05208" transform="matrix(1 0 0 1 577 1392)"/><path d="M57.4583 102.604 139.542 102.604 139.542 106.708 57.4583 106.708Z" stroke="#231E1F" stroke-width="2.05208" transform="matrix(1 0 0 1 577 1392)"/><path d="M57.4583 119.021 139.542 119.021 139.542 123.125 57.4583 123.125Z" stroke="#231E1F" stroke-width="2.05208" transform="matrix(1 0 0 1 577 1392)"/><path d="M57.4583 135.437 139.542 135.437 139.542 139.542 57.4583 139.542Z" stroke="#231E1F" stroke-width="2.05208" transform="matrix(1 0 0 1 577 1392)"/><path d="M57.4583 151.854 139.542 151.854 139.542 155.958 57.4583 155.958Z" stroke="#231E1F" stroke-width="2.05208" transform="matrix(1 0 0 1 577 1392)"/><path d="M36.9375 16.4167 36.9375 180.583 160.062 180.583 160.062 60.7129 115.766 16.4167ZM117.004 23.4574 153.022 59.4755C153.03 59.4835 153.03 59.4967 153.022 59.5045 153.018 59.5081 153.013 59.5104 153.007 59.5104L116.969 59.5104 116.969 23.4717C116.969 23.4604 116.978 23.4514 116.989 23.4514 116.995 23.4516 117 23.4537 117.004 23.4574ZM41.0417 176.479 41.0417 20.5208 112.865 20.5208 112.865 63.6146 155.958 63.6146 155.958 176.479Z" stroke="#231E1F" stroke-width="2.05208" transform="matrix(1 0 0 1 577 1392)"/></g></g></g><g clip-path="url(#clip39)"><g clip-path="url(#clip40)"><g clip-path="url(#clip41)"><path d="M154.432 79.6228C155.902 77.0665 157.084 74.3551 157.956 71.5384L167.077 66.978 167.077 56.6134 157.956 52.053C157.194 49.2299 156.08 46.5138 154.64 43.9686L157.956 34.2259 150.494 26.7634 140.751 30.0801C138.207 28.632 135.491 27.5101 132.667 26.7406L128.106 17.6198 117.742 17.6198 113.181 26.7406C110.358 27.5024 107.642 28.6166 105.097 30.0573L95.3542 26.7406 87.8917 34.2031 91.2083 43.9458C89.7683 46.491 88.6541 49.2071 87.8917 52.0302L78.7708 56.5906 78.7708 66.9552 87.8917 71.5156C88.6543 74.3387 89.7687 77.0547 91.2083 79.6L87.8917 89.3427 95.1469 96.5979 104.89 93.2813C107.435 94.7213 110.151 95.8355 112.974 96.5979L117.534 105.719 127.899 105.719 132.459 96.5979C135.283 95.8357 137.999 94.7215 140.544 93.2813L150.286 96.5979 157.749 89.3427ZM150.506 80.9578 152.981 88.2234 149.219 91.882 141.881 89.3821 140.09 88.7727 138.454 89.7262C136.21 90.9948 133.813 91.9735 131.321 92.6387L129.568 93.1403 128.751 94.7717 125.337 101.612 120.103 101.612 116.689 94.7717 115.872 93.1403 114.118 92.6387C111.626 91.9735 109.229 90.9948 106.983 89.7262L105.35 88.7727 103.559 89.3821 96.258 91.8696 92.6511 88.2627 95.1386 80.9598 95.748 79.1688 94.7945 77.5354C93.5288 75.289 92.5535 72.8906 91.8924 70.3983L91.3908 68.6446 89.7614 67.83 82.9167 64.4118 82.9167 59.1693 89.7573 55.7615 91.3866 54.9447 91.8883 53.191C92.5497 50.6994 93.5248 48.3021 94.7904 46.0561L95.7439 44.4205 95.1345 42.6316 92.6469 35.3267 96.4611 31.5125 103.762 34 105.553 34.6219 107.186 33.6662C109.432 32.4011 111.83 31.426 114.321 30.7642L116.083 30.2335 116.9 28.6021 120.314 21.7615 125.555 21.7615 128.969 28.6021 129.785 30.2335 131.537 30.7351C134.029 31.3966 136.426 32.3717 138.672 33.6372L140.307 34.5928 142.098 33.971 149.397 31.4835 153.211 35.2976 150.724 42.6026 150.114 44.3915 151.068 46.0271C152.336 48.2728 153.315 50.6704 153.98 53.162L154.48 54.9157 156.111 55.7324 162.952 59.1486 162.952 64.391 156.111 67.8072 154.526 68.6011 154.003 70.2968C153.224 72.8151 152.169 75.2398 150.859 77.5271L149.905 79.1606Z" stroke="#231E1F" stroke-width="2.07292" transform="matrix(1 0 0 1.00503 1063 1389)"/><path d="M31.9229 131.875 31.9229 142.239 41.0438 146.8C41.8062 149.623 42.9204 152.339 44.3604 154.884L41.251 164.627 48.5063 171.882 58.249 168.773C60.7939 170.213 63.51 171.327 66.3333 172.089L70.8938 181.21 81.2583 181.21 85.8188 172.089C88.6419 171.327 91.358 170.213 93.9031 168.773L103.646 172.089 110.901 164.627 107.792 155.092C109.232 152.546 110.346 149.83 111.108 147.007L120.229 142.447 120.229 132.082 111.108 127.522C110.346 124.699 109.232 121.982 107.792 119.437L111.108 109.695 103.646 102.232 93.9031 105.549C91.341 104.144 88.6292 103.032 85.8188 102.232L81.2583 93.1113 70.8938 93.1113 66.3333 102.232C63.51 102.994 60.7939 104.108 58.249 105.549L48.5063 102.232 41.251 109.487 44.3604 119.23C42.956 121.792 41.8435 124.504 41.0438 127.314ZM44.4848 130.217 45.0072 128.521C45.7205 126.016 46.7047 123.596 47.9424 121.305L48.8711 119.711 48.3093 117.955 45.969 110.615 49.6132 106.969 56.914 109.456 58.705 110.068 60.3385 109.114C62.5836 107.845 64.9812 106.866 67.4734 106.202L69.2354 105.719 70.0522 104.087 73.4663 97.2467 78.7066 97.2467 82.1207 104.087 82.9146 105.675 84.6103 106.196C87.1141 106.91 89.5328 107.896 91.824 109.133L93.4595 110.086 95.2505 109.475 102.549 106.987 106.363 110.804 103.876 118.107 103.267 119.895 104.22 121.531C105.489 123.777 106.467 126.175 107.132 128.668L107.632 130.42 109.263 131.236 116.083 134.644 116.083 139.887 109.243 143.303 107.611 144.12 107.112 145.871C106.447 148.364 105.468 150.762 104.199 153.008L103.262 154.615 103.839 156.383 106.173 163.541 102.506 167.33 95.2505 164.857 93.4595 164.248 91.824 165.201C89.5772 166.471 87.1774 167.45 84.6828 168.114L82.9291 168.615 82.1145 170.247 78.7004 177.087 73.46 177.087 70.0459 170.247 69.2292 168.615 67.4755 168.114C64.9833 167.449 62.5857 166.471 60.3405 165.201L58.7485 164.272 56.9907 164.832 49.6547 167.175 45.9711 163.491 48.3114 156.151 48.8732 154.395 47.9445 152.801C46.6753 150.556 45.6966 148.158 45.0321 145.666L44.5304 143.912 42.9011 143.096 36.0605 139.679 36.0605 134.437 42.9011 131.021Z" stroke="#231E1F" stroke-width="2.07292" transform="matrix(1 0 0 1.00503 1063 1389)"/><path d="M122.924 46.2385C114.338 46.2385 107.377 53.1991 107.377 61.7854 107.377 70.3716 114.338 77.3322 122.924 77.3322 131.51 77.3322 138.471 70.3716 138.471 61.7854 138.407 53.2259 131.483 46.3027 122.924 46.2385ZM122.924 73.1864C116.631 73.1773 111.532 68.0781 111.523 61.7854 111.607 55.5237 116.662 50.4681 122.924 50.3843 129.217 50.3934 134.316 55.4926 134.325 61.7854 134.247 68.0508 129.189 73.112 122.924 73.1947Z" stroke="#231E1F" stroke-width="2.07292" transform="matrix(1 0 0 1.00503 1063 1389)"/><path d="M76.0761 152.818C84.6623 152.818 91.6229 145.857 91.6229 137.271 91.6229 128.684 84.6623 121.724 76.0761 121.724 67.4898 121.724 60.5292 128.684 60.5292 137.271 60.5188 145.847 67.4627 152.807 76.0387 152.818 76.0512 152.818 76.0636 152.818 76.0761 152.818ZM76.0761 125.859C82.3727 125.859 87.4771 130.964 87.4771 137.26 87.4771 143.557 82.3727 148.661 76.0761 148.661 69.7794 148.661 64.675 143.557 64.675 137.26 64.6841 130.968 69.7833 125.868 76.0761 125.859Z" stroke="#231E1F" stroke-width="2.07292" transform="matrix(1 0 0 1.00503 1063 1389)"/></g></g></g><g clip-path="url(#clip42)"><g clip-path="url(#clip43)"><g clip-path="url(#clip44)"><path d="M1529.96 1449.96 1532.88 1449.96 1532.88 1493.71 1529.96 1493.71Z" stroke="#231E1F" stroke-width="1.45833"/><path d="M1562.5 1449.96 1558.67 1449.96C1552.48 1449.97 1547.47 1454.98 1547.46 1461.17L1547.46 1482.5C1547.47 1488.68 1552.48 1493.7 1558.67 1493.71L1562.5 1493.71C1568.69 1493.7 1573.7 1488.68 1573.71 1482.5L1573.71 1461.17C1573.7 1454.98 1568.69 1449.97 1562.5 1449.96ZM1570.79 1482.5C1570.79 1487.08 1567.08 1490.79 1562.5 1490.79L1558.67 1490.79C1554.09 1490.79 1550.38 1487.08 1550.38 1482.5L1550.38 1461.17C1550.38 1456.59 1554.09 1452.88 1558.67 1452.88L1562.5 1452.88C1567.08 1452.88 1570.79 1456.59 1570.79 1461.17Z" stroke="#231E1F" stroke-width="1.45833"/><path d="M1620.83 1449.96 1617 1449.96C1610.81 1449.97 1605.8 1454.98 1605.79 1461.17L1605.79 1482.5C1605.8 1488.68 1610.82 1493.7 1617 1493.71L1620.83 1493.71C1627.02 1493.7 1632.03 1488.68 1632.04 1482.5L1632.04 1461.17C1632.03 1454.98 1627.02 1449.97 1620.83 1449.96ZM1629.12 1482.5C1629.12 1487.08 1625.41 1490.79 1620.83 1490.79L1617 1490.79C1612.42 1490.79 1608.71 1487.08 1608.71 1482.5L1608.71 1461.17C1608.71 1456.59 1612.42 1452.88 1617 1452.88L1620.83 1452.88C1625.41 1452.88 1629.12 1456.59 1629.12 1461.17Z" stroke="#231E1F" stroke-width="1.45833"/><path d="M1562.5 1508.29 1558.67 1508.29C1552.48 1508.3 1547.47 1513.31 1547.46 1519.5L1547.46 1540.83C1547.47 1547.02 1552.48 1552.03 1558.67 1552.04L1562.5 1552.04C1568.69 1552.03 1573.7 1547.02 1573.71 1540.83L1573.71 1519.5C1573.7 1513.31 1568.69 1508.3 1562.5 1508.29ZM1570.79 1540.83C1570.79 1545.41 1567.08 1549.12 1562.5 1549.12L1558.67 1549.12C1554.09 1549.12 1550.38 1545.41 1550.38 1540.83L1550.38 1519.5C1550.38 1514.92 1554.09 1511.21 1558.67 1511.21L1562.5 1511.21C1567.08 1511.21 1570.79 1514.92 1570.79 1519.5Z" stroke="#231E1F" stroke-width="1.45833"/><path d="M1620.83 1508.29 1617 1508.29C1610.81 1508.3 1605.8 1513.31 1605.79 1519.5L1605.79 1540.83C1605.8 1547.02 1610.82 1552.03 1617 1552.04L1620.83 1552.04C1627.02 1552.03 1632.03 1547.02 1632.04 1540.83L1632.04 1519.5C1632.03 1513.31 1627.02 1508.3 1620.83 1508.29ZM1629.12 1540.83C1629.12 1545.41 1625.41 1549.12 1620.83 1549.12L1617 1549.12C1612.42 1549.12 1608.71 1545.41 1608.71 1540.83L1608.71 1519.5C1608.71 1514.92 1612.42 1511.21 1617 1511.21L1620.83 1511.21C1625.41 1511.21 1629.12 1514.92 1629.12 1519.5Z" stroke="#231E1F" stroke-width="1.45833"/><path d="M1588.29 1449.96 1591.21 1449.96 1591.21 1493.71 1588.29 1493.71Z" stroke="#231E1F" stroke-width="1.45833"/><path d="M1588.29 1508.29 1591.21 1508.29 1591.21 1552.04 1588.29 1552.04Z" stroke="#231E1F" stroke-width="1.45833"/><path d="M1529.96 1508.29 1532.88 1508.29 1532.88 1552.04 1529.96 1552.04Z" stroke="#231E1F" stroke-width="1.45833"/></g></g></g><g clip-path="url(#clip45)"><g clip-path="url(#clip46)"><g clip-path="url(#clip47)"><path d="M832.07 2061.84C844.633 2059.8 854.375 2046.37 854.375 2030.11 854.375 2012.45 842.88 1998.08 828.75 1998.08L826.614 1998.08 826.614 2039.91 804.801 2018.09 803.992 2021.96C803.422 2024.64 803.132 2027.37 803.125 2030.11 803.125 2046.59 813.125 2060.18 825.933 2061.94L815.807 2072.07C813.917 2067.93 810.254 2064.88 805.847 2063.76L791.45 2060.16C795.104 2057.17 795.647 2051.79 792.664 2048.14 789.68 2044.49 784.299 2043.94 780.645 2046.93 777.557 2049.45 776.624 2053.77 778.396 2057.34 775.05 2056.97 771.674 2056.98 768.33 2057.36 768.921 2056.2 769.233 2054.91 769.242 2053.6 769.263 2048.89 765.455 2045.05 760.738 2045.02 756.021 2045 752.18 2048.81 752.159 2053.53 752.147 2056.13 753.322 2058.59 755.349 2060.22L741.17 2063.77C736.688 2064.9 732.98 2068.04 731.116 2072.27L720.8 2061.95C733.612 2060.19 743.611 2046.6 743.611 2030.14 743.603 2027.39 743.313 2024.66 742.744 2021.98L741.934 2018.12 720.127 2039.91 720.127 1998.08 717.992 1998.08C703.862 1998.08 692.367 2012.45 692.367 2030.11 692.367 2046.37 702.109 2059.8 714.671 2061.84L729.895 2077.07 728.468 2089.91 717.108 2089.91 703.672 2103.34C702.823 2104.16 702.8 2105.52 703.619 2106.36 704.439 2107.21 705.791 2107.24 706.639 2106.42 706.657 2106.4 706.674 2106.38 706.691 2106.36L718.876 2094.18 727.994 2094.18 726.333 2109.12 721.379 2109.12 707.943 2122.56C707.094 2123.38 707.071 2124.73 707.89 2125.58 708.71 2126.43 710.061 2126.45 710.91 2125.64 710.928 2125.62 710.945 2125.6 710.962 2125.58L723.147 2113.4 726.015 2113.4C726.167 2118.29 728.685 2122.8 732.767 2125.5L720.127 2138.14 720.127 2156.1C720.127 2157.28 721.083 2158.24 722.263 2158.24 723.442 2158.24 724.398 2157.28 724.398 2156.1L724.398 2139.9 736.585 2127.72C736.674 2127.61 736.752 2127.49 736.818 2127.37 736.935 2127.4 737.048 2127.44 737.168 2127.48L752.432 2131.46 745.752 2138.14 745.752 2164.65C745.752 2165.83 746.708 2166.78 747.888 2166.78 749.067 2166.78 750.023 2165.83 750.023 2164.65L750.023 2139.9 757.222 2132.71 764.35 2134.57C770.358 2136.13 776.667 2136.13 782.676 2134.57L789.58 2132.77 796.718 2139.9 796.718 2164.65C796.718 2165.83 797.674 2166.78 798.854 2166.78 800.033 2166.78 800.989 2165.83 800.989 2164.65L800.989 2138.14 794.369 2131.52 809.858 2127.48 809.973 2127.44C810.026 2127.54 810.087 2127.63 810.156 2127.72L822.343 2139.9 822.343 2156.1C822.343 2157.28 823.299 2158.24 824.479 2158.24 825.658 2158.24 826.614 2157.28 826.614 2156.1L826.614 2138.14 814.086 2125.61C818.265 2122.93 820.855 2118.36 821.009 2113.4L823.595 2113.4 835.781 2125.58C836.63 2126.4 837.982 2126.38 838.801 2125.53 839.6 2124.7 839.6 2123.39 838.801 2122.56L825.363 2109.12 820.693 2109.12 819.033 2094.18 827.868 2094.18 840.054 2106.36C840.903 2107.18 842.255 2107.16 843.074 2106.31 843.873 2105.48 843.873 2104.17 843.074 2103.34L829.634 2089.91 818.557 2089.91 817.103 2076.81ZM807.395 2030.11C807.395 2029.05 807.447 2027.97 807.551 2026.88L827.24 2046.57C828.074 2047.41 829.426 2047.41 830.26 2046.57 830.66 2046.17 830.885 2045.63 830.885 2045.06L830.885 2002.49C841.66 2003.89 850.104 2015.75 850.104 2030.11 850.104 2045.42 840.524 2057.88 828.75 2057.88 816.975 2057.88 807.395 2045.42 807.395 2030.11ZM786.041 2049.33C788.4 2049.33 790.312 2051.25 790.312 2053.6 790.312 2055.96 788.4 2057.88 786.041 2057.88 783.682 2057.88 781.77 2055.96 781.77 2053.6 781.77 2051.25 783.682 2049.33 786.041 2049.33ZM760.7 2049.33C763.059 2049.33 764.971 2051.25 764.971 2053.6 764.971 2055.96 763.059 2057.88 760.7 2057.88 758.341 2057.88 756.429 2055.96 756.429 2053.6 756.429 2051.25 758.341 2049.33 760.7 2049.33ZM696.638 2030.11C696.638 2015.75 705.081 2003.89 715.857 2002.49L715.857 2045.06C715.857 2046.24 716.813 2047.2 717.992 2047.2 718.558 2047.2 719.101 2046.97 719.502 2046.57L739.19 2026.88C739.293 2027.97 739.345 2029.05 739.346 2030.11 739.346 2045.42 729.767 2057.88 717.992 2057.88 706.217 2057.88 696.638 2045.42 696.638 2030.11ZM808.779 2123.34 781.597 2130.43C776.296 2131.81 770.73 2131.81 765.428 2130.43L738.246 2123.34C733.131 2121.98 729.769 2117.1 730.328 2111.83L734.189 2077.08C734.695 2072.65 737.89 2068.99 742.214 2067.9L763.677 2062.54C770.138 2060.93 776.896 2060.93 783.357 2062.54L804.812 2067.91C808.745 2068.92 811.773 2072.06 812.631 2076.03 812.603 2076.39 812.673 2076.76 812.834 2077.09L812.834 2077.09 816.695 2111.85C817.248 2117.1 813.889 2121.98 808.779 2123.34Z" stroke="#231E1F" stroke-width="2.13542"/></g></g></g><g clip-path="url(#clip48)" filter="url(#fx8)" transform="translate(1036 1804)"><g clip-path="url(#clip49)"><path d="M14.9999 49.218 62.4995 49.2182 62.4995 63.2182 14.9998 63.218ZM55.4996 35.2182 97.4995 56.2184 55.4994 77.2182Z" fill="#007B96"/></g></g><path d="M1051 1846.13 1099.12 1846.13 1099.12 1859.88 1051 1859.88ZM1092.25 1832.38 1133.5 1853 1092.25 1873.63Z" fill="#007B96"/><g clip-path="url(#clip50)" filter="url(#fx9)" transform="translate(1036 2075)"><g clip-path="url(#clip51)"><path d="M14.9999 49.2178 62.4999 49.218 62.4999 63.218 14.9998 63.2178ZM55.5 35.2179 97.4999 56.2181 55.4998 77.2179Z" fill="#007B96"/></g></g><path d="M1051 2117.12 1099.12 2117.13 1099.12 2130.88 1051 2130.88ZM1092.25 2103.38 1133.5 2124 1092.25 2144.63Z" fill="#007B96"/><text fill="#231E1F" font-family="Arial Nova Light,Arial Nova Light_MSFontService,sans-serif" font-weight="300" font-size="110" transform="matrix(1 0 0 1 1657.83 1537)">/.C</text><rect x="2465" y="2145" width="105" height="79" fill="#F7A37A"/><g clip-path="url(#clip52)"><g clip-path="url(#clip53)"><g clip-path="url(#clip54)"><path d="M154.432 79.6228C155.902 77.0665 157.084 74.3551 157.956 71.5384L167.077 66.978 167.077 56.6134 157.956 52.053C157.194 49.2299 156.08 46.5138 154.64 43.9686L157.956 34.2259 150.494 26.7634 140.751 30.0801C138.207 28.632 135.491 27.5101 132.667 26.7406L128.106 17.6198 117.742 17.6198 113.181 26.7406C110.358 27.5024 107.642 28.6166 105.097 30.0573L95.3542 26.7406 87.8917 34.2031 91.2083 43.9458C89.7683 46.491 88.6541 49.2071 87.8917 52.0302L78.7708 56.5906 78.7708 66.9552 87.8917 71.5156C88.6543 74.3387 89.7687 77.0547 91.2083 79.6L87.8917 89.3427 95.1469 96.5979 104.89 93.2813C107.435 94.7213 110.151 95.8355 112.974 96.5979L117.534 105.719 127.899 105.719 132.459 96.5979C135.283 95.8357 137.999 94.7215 140.544 93.2813L150.286 96.5979 157.749 89.3427ZM150.506 80.9578 152.981 88.2234 149.219 91.882 141.881 89.3821 140.09 88.7727 138.454 89.7262C136.21 90.9948 133.813 91.9735 131.321 92.6387L129.568 93.1403 128.751 94.7717 125.337 101.612 120.103 101.612 116.689 94.7717 115.872 93.1403 114.118 92.6387C111.626 91.9735 109.229 90.9948 106.983 89.7262L105.35 88.7727 103.559 89.3821 96.258 91.8696 92.6511 88.2627 95.1386 80.9598 95.748 79.1688 94.7945 77.5354C93.5288 75.289 92.5535 72.8906 91.8924 70.3983L91.3908 68.6446 89.7614 67.83 82.9167 64.4118 82.9167 59.1693 89.7573 55.7615 91.3866 54.9447 91.8883 53.191C92.5497 50.6994 93.5248 48.3021 94.7904 46.0561L95.7439 44.4205 95.1345 42.6316 92.6469 35.3267 96.4611 31.5125 103.762 34 105.553 34.6219 107.186 33.6662C109.432 32.4011 111.83 31.426 114.321 30.7642L116.083 30.2335 116.9 28.6021 120.314 21.7615 125.555 21.7615 128.969 28.6021 129.785 30.2335 131.537 30.7351C134.029 31.3966 136.426 32.3717 138.672 33.6372L140.307 34.5928 142.098 33.971 149.397 31.4835 153.211 35.2976 150.724 42.6026 150.114 44.3915 151.068 46.0271C152.336 48.2728 153.315 50.6704 153.98 53.162L154.48 54.9157 156.111 55.7324 162.952 59.1486 162.952 64.391 156.111 67.8072 154.526 68.6011 154.003 70.2968C153.224 72.8151 152.169 75.2398 150.859 77.5271L149.905 79.1606Z" stroke="#231E1F" stroke-width="2.07292" transform="matrix(1 0 0 1.00503 3105 1383)"/><path d="M31.9229 131.875 31.9229 142.239 41.0438 146.8C41.8062 149.623 42.9204 152.339 44.3604 154.884L41.251 164.627 48.5063 171.882 58.249 168.773C60.7939 170.213 63.51 171.327 66.3333 172.089L70.8938 181.21 81.2583 181.21 85.8188 172.089C88.6419 171.327 91.358 170.213 93.9031 168.773L103.646 172.089 110.901 164.627 107.792 155.092C109.232 152.546 110.346 149.83 111.108 147.007L120.229 142.447 120.229 132.082 111.108 127.522C110.346 124.699 109.232 121.982 107.792 119.437L111.108 109.695 103.646 102.232 93.9031 105.549C91.341 104.144 88.6292 103.032 85.8188 102.232L81.2583 93.1113 70.8938 93.1113 66.3333 102.232C63.51 102.994 60.7939 104.108 58.249 105.549L48.5063 102.232 41.251 109.487 44.3604 119.23C42.956 121.792 41.8435 124.504 41.0438 127.314ZM44.4848 130.217 45.0072 128.521C45.7205 126.016 46.7047 123.596 47.9424 121.305L48.8711 119.711 48.3093 117.955 45.969 110.615 49.6132 106.969 56.914 109.456 58.705 110.068 60.3385 109.114C62.5836 107.845 64.9812 106.866 67.4734 106.202L69.2354 105.719 70.0522 104.087 73.4663 97.2467 78.7066 97.2467 82.1207 104.087 82.9146 105.675 84.6103 106.196C87.1141 106.91 89.5328 107.896 91.824 109.133L93.4595 110.086 95.2505 109.475 102.549 106.987 106.363 110.804 103.876 118.107 103.267 119.895 104.22 121.531C105.489 123.777 106.467 126.175 107.132 128.668L107.632 130.42 109.263 131.236 116.083 134.644 116.083 139.887 109.243 143.303 107.611 144.12 107.112 145.871C106.447 148.364 105.468 150.762 104.199 153.008L103.262 154.615 103.839 156.383 106.173 163.541 102.506 167.33 95.2505 164.857 93.4595 164.248 91.824 165.201C89.5772 166.471 87.1774 167.45 84.6828 168.114L82.9291 168.615 82.1145 170.247 78.7004 177.087 73.46 177.087 70.0459 170.247 69.2292 168.615 67.4755 168.114C64.9833 167.449 62.5857 166.471 60.3405 165.201L58.7485 164.272 56.9907 164.832 49.6547 167.175 45.9711 163.491 48.3114 156.151 48.8732 154.395 47.9445 152.801C46.6753 150.556 45.6966 148.158 45.0321 145.666L44.5304 143.912 42.9011 143.096 36.0605 139.679 36.0605 134.437 42.9011 131.021Z" stroke="#231E1F" stroke-width="2.07292" transform="matrix(1 0 0 1.00503 3105 1383)"/><path d="M122.924 46.2385C114.338 46.2385 107.377 53.1991 107.377 61.7854 107.377 70.3716 114.338 77.3322 122.924 77.3322 131.51 77.3322 138.471 70.3716 138.471 61.7854 138.407 53.2259 131.483 46.3027 122.924 46.2385ZM122.924 73.1864C116.631 73.1773 111.532 68.0781 111.523 61.7854 111.607 55.5237 116.662 50.4681 122.924 50.3843 129.217 50.3934 134.316 55.4926 134.325 61.7854 134.247 68.0508 129.189 73.112 122.924 73.1947Z" stroke="#231E1F" stroke-width="2.07292" transform="matrix(1 0 0 1.00503 3105 1383)"/><path d="M76.0761 152.818C84.6623 152.818 91.6229 145.857 91.6229 137.271 91.6229 128.684 84.6623 121.724 76.0761 121.724 67.4898 121.724 60.5292 128.684 60.5292 137.271 60.5188 145.847 67.4627 152.807 76.0387 152.818 76.0512 152.818 76.0636 152.818 76.0761 152.818ZM76.0761 125.859C82.3727 125.859 87.4771 130.964 87.4771 137.26 87.4771 143.557 82.3727 148.661 76.0761 148.661 69.7794 148.661 64.675 143.557 64.675 137.26 64.6841 130.968 69.7833 125.868 76.0761 125.859Z" stroke="#231E1F" stroke-width="2.07292" transform="matrix(1 0 0 1.00503 3105 1383)"/></g></g></g><g clip-path="url(#clip55)" filter="url(#fx10)" transform="translate(1778 1804)"><g clip-path="url(#clip56)"><path d="M91.9999 49.218 447.483 49.2183 447.483 63.2183 91.9999 63.218ZM98.9999 77.218 56.9999 56.218 98.9999 35.2181ZM440.483 35.2183 482.483 56.2184 440.483 77.2183Z" fill="#007B96"/></g></g><path d="M1869.37 1846.13 2226.11 1846.13 2226.11 1859.88 1869.37 1859.88ZM1876.25 1873.63 1835 1853 1876.25 1832.38ZM2219.23 1832.38 2260.48 1853 2219.23 1873.63Z" fill="#007B96"/><g clip-path="url(#clip57)" filter="url(#fx11)" transform="translate(1778 1340)"><g clip-path="url(#clip58)"><path d="M91.9999 49.2179 447.953 49.2182 447.953 63.2182 91.9999 63.2179ZM98.9999 77.2179 56.9999 56.2179 98.9999 35.2179ZM440.953 35.2182 482.953 56.2183 440.953 77.2182Z" fill="#007B96"/></g></g><path d="M1869.37 1382.13 2226.58 1382.13 2226.58 1395.88 1869.37 1395.88ZM1876.25 1409.63 1835 1389 1876.25 1368.38ZM2219.7 1368.38 2260.95 1389 2219.7 1409.63Z" fill="#007B96"/><g clip-path="url(#clip59)" filter="url(#fx12)" transform="translate(1778 2075)"><g clip-path="url(#clip60)"><path d="M91.9999 49.2178 447.483 49.2181 447.483 63.2181 91.9999 63.2178ZM98.9999 77.2178 56.9999 56.2178 98.9999 35.2178ZM440.483 35.2181 482.483 56.2181 440.483 77.2181Z" fill="#007B96"/></g></g><path d="M1869.37 2117.12 2226.11 2117.13 2226.11 2130.88 1869.37 2130.88ZM1876.25 2144.62 1835 2124 1876.25 2103.38ZM2219.23 2103.38 2260.48 2124 2219.23 2144.63Z" fill="#007B96"/><g clip-path="url(#clip61)" filter="url(#fx13)" transform="translate(4552 1939)"><g clip-path="url(#clip62)"><path d="M35-6.9999 125.194-6.99964 125.194 7.00036 35 7.0001ZM41.9999 21.0001 0 0 42.0001-20.9999Z" fill="#7030A0" transform="matrix(-1 0 0 1 147.193 56.2178)"/></g></g><path d="M34.375-6.8749 125.194-6.87464 125.194 6.87536 34.375 6.8751ZM41.2499 20.6251 0 0 41.2501-20.6249Z" fill="#7030A0" transform="matrix(-1 0 0 1 4699.19 1988)"/><g clip-path="url(#clip63)" filter="url(#fx14)" transform="translate(4552 1505)"><g clip-path="url(#clip64)"><path d="M35-6.9999 122.962-6.99964 122.962 7.00036 35 7.0001ZM41.9999 21.0001 0 0 42.0001-20.9999Z" fill="#7030A0" transform="matrix(-1 0 0 1 144.962 56.2179)"/></g></g><path d="M34.375-6.8749 122.962-6.87464 122.962 6.87536 34.375 6.8751ZM41.2499 20.6251 0 0 41.2501-20.6249Z" fill="#7030A0" transform="matrix(-1 0 0 1 4696.96 1554)"/><g clip-path="url(#clip65)" filter="url(#fx15)" transform="translate(4552 1205)"><g clip-path="url(#clip66)"><path d="M35-6.9999 125.194-6.99964 125.194 7.00036 35 7.0001ZM41.9999 21.0001 0 0 42.0001-20.9999Z" fill="#7030A0" transform="matrix(-1 0 0 1 147.193 56.2179)"/></g></g><path d="M34.375-6.8749 125.194-6.87464 125.194 6.87536 34.375 6.8751ZM41.2499 20.6251 0 0 41.2501-20.6249Z" fill="#7030A0" transform="matrix(-1 0 0 1 4699.19 1254)"/><g clip-path="url(#clip67)" filter="url(#fx16)" transform="translate(1370 1905)"><g clip-path="url(#clip68)"><path d="M63.9999 91.2172 64.0002 592.309 50.0002 592.309 49.9999 91.2172ZM35.9999 98.2178 56.9999 56.2178 77.9999 98.2178Z" fill="#007B96"/></g></g><path d="M1433.87 1988.37 1433.88 2490.09 1420.13 2490.09 1420.12 1988.37ZM1406.37 1995.25 1427 1954 1447.62 1995.25Z" fill="#007B96"/><g clip-path="url(#clip69)" filter="url(#fx17)" transform="translate(1416 2177)"><g clip-path="url(#clip70)"><path d="M64.0732 91.2033 64.5677 327.594 50.5677 327.624 50.0732 91.2326ZM36.0879 98.2619 57 56.218 78.0878 98.174Z" fill="#007B96"/></g></g><path d="M1479.95 2260.36 1480.44 2497.38 1466.69 2497.41 1466.2 2260.39ZM1452.46 2267.29 1473 2226 1493.71 2267.21Z" fill="#007B96"/><rect x="1133" y="2489" width="702" height="161" fill="#27D8FF"/><text fill="#231E1F" font-family="Arial,Arial_MSFontService,sans-serif" font-weight="400" font-size="73" transform="matrix(1 0 0 1 1234.22 2597)">Build Callbacks</text><rect x="1133" y="2023" width="702" height="202" fill="#F7A37A"/><text fill="#231E1F" font-family="Arial,Arial_MSFontService,sans-serif" font-weight="400" font-size="73" transform="matrix(1 0 0 1 1386.57 2151)">C<tspan font-size="73" x="52.7084" y="0">-</tspan><tspan font-size="73" x="77.3438" y="0">API</tspan></text><rect x="2911" y="1616" width="588" height="149" fill="#FCE0D3"/><text fill="#231E1F" font-family="Arial,Arial_MSFontService,sans-serif" font-weight="400" font-size="64" transform="matrix(1 0 0 1 2960.79 1707)">Common Passes</text><rect x="2911" y="2009" width="588" height="148" fill="#FBD2D3"/><text fill="#231E1F" font-family="Arial,Arial_MSFontService,sans-serif" font-weight="400" font-size="64" transform="matrix(1 0 0 1 2965.95 2100)">Backend Passes</text><g clip-path="url(#clip71)" filter="url(#fx18)" transform="translate(2413 1610)"><g clip-path="url(#clip72)"><path d="M50.0007 113.546 49.9999 22.2179 63.9999 22.2178 64.0007 113.546ZM78.0006 106.546 57.001 148.546 36.0006 106.547Z" fill="#C1470C"/></g></g><path d="M2463.13 1716.95 2463.12 1625 2476.88 1625 2476.88 1716.95ZM2490.63 1710.08 2470 1751.33 2449.38 1710.08Z" fill="#C1470C"/></g></svg>